<svg version="1.1" id="Layer_1" xmlns="http://www.w3.org/2000/svg" xmlns:xlink="http://www.w3.org/1999/xlink" x="0px" y="0px"
	 width="100%" viewBox="0 0 155 182" enable-background="new 0 0 155 182" xml:space="preserve">
<path fill="#06D9B3" opacity="1.000000" stroke="none" 
	d="
M38.308754,73.036591 
	C49.222828,55.953701 59.692379,38.999210 70.898582,22.546467 
	C81.216728,7.397540 95.870544,-0.927289 114.361885,2.131968 
	C138.170883,6.070993 152.955658,24.073084 153.204269,47.742207 
	C153.284027,55.335079 149.793991,63.754116 145.727905,70.454491 
	C133.363754,90.828987 119.911308,110.542641 106.901611,130.525970 
	C100.450546,140.435028 94.468544,150.682617 87.515785,160.224335 
	C76.196808,175.758102 61.737789,182.261459 43.193451,178.874496 
	C24.888618,175.531265 10.920091,159.141602 7.762908,140.141953 
	C5.504219,126.549370 10.685971,115.648544 17.010338,104.989799 
	C23.471682,94.100212 31.079508,83.890892 38.308754,73.036591 
M112.063347,19.007114 
	C99.749565,17.933683 90.437157,22.686874 83.883308,33.191792 
	C78.949799,41.099514 73.746063,48.838593 68.666756,56.655430 
	C67.179054,58.944935 65.705544,61.243649 63.908199,64.030098 
	C86.873337,63.160324 102.075218,72.875313 110.209747,94.221550 
	C117.150024,83.559242 123.783722,73.454346 130.329559,63.292858 
	C142.351410,44.630611 134.446686,24.597288 112.063347,19.007114 
z"/>
<path fill="#FAFEFD" opacity="1.000000" stroke="none" 
	d="
M112.499229,19.055084 
	C134.446686,24.597288 142.351410,44.630611 130.329559,63.292858 
	C123.783722,73.454346 117.150024,83.559242 110.209747,94.221550 
	C102.075218,72.875313 86.873337,63.160324 63.908199,64.030098 
	C65.705544,61.243649 67.179054,58.944935 68.666756,56.655430 
	C73.746063,48.838593 78.949799,41.099514 83.883308,33.191792 
	C90.437157,22.686874 99.749565,17.933683 112.499229,19.055084 
M117.336029,33.860714 
	C115.642090,27.285406 111.079414,23.962301 105.681732,25.372620 
	C100.704849,26.672991 97.910713,30.966757 98.553711,36.326267 
	C99.104416,40.916527 103.286751,44.761612 107.893944,44.913330 
	C111.853508,45.043724 116.739876,39.746006 117.336029,33.860714 
M97.643341,52.717587 
	C92.766205,51.689705 89.515007,53.354977 88.933105,57.316998 
	C88.438416,60.685219 89.693047,63.725155 93.010559,64.290848 
	C95.176285,64.660141 98.470795,63.716263 99.871338,62.132721 
	C102.569130,59.082428 101.634163,55.648880 97.643341,52.717587 
z"/>
<path fill="#13D5AD" opacity="1.000000" stroke="none" 
	d="
M117.371536,34.230049 
	C116.739876,39.746006 111.853508,45.043724 107.893944,44.913330 
	C103.286751,44.761612 99.104416,40.916527 98.553711,36.326267 
	C97.910713,30.966757 100.704849,26.672991 105.681732,25.372620 
	C111.079414,23.962301 115.642090,27.285406 117.371536,34.230049 
M106.893097,31.499655 
	C106.264442,33.254478 105.401733,34.980373 105.178619,36.785324 
	C105.125626,37.214043 107.404816,38.567223 108.272339,38.317551 
	C109.439003,37.981785 111.279305,36.003124 111.079712,35.603054 
	C110.277084,33.994190 108.799843,32.721886 106.893097,31.499655 
z"/>
<path fill="#20D6AF" opacity="1.000000" stroke="none" 
	d="
M97.995117,52.900963 
	C101.634163,55.648880 102.569130,59.082428 99.871338,62.132721 
	C98.470795,63.716263 95.176285,64.660141 93.010559,64.290848 
	C89.693047,63.725155 88.438416,60.685219 88.933105,57.316998 
	C89.515007,53.354977 92.766205,51.689705 97.995117,52.900963 
z"/>
<path fill="#E4FBF7" opacity="1.000000" stroke="none" 
	d="
M107.232498,31.412434 
	C108.799843,32.721886 110.277084,33.994190 111.079712,35.603054 
	C111.279305,36.003124 109.439003,37.981785 108.272339,38.317551 
	C107.404816,38.567223 105.125626,37.214043 105.178619,36.785324 
	C105.401733,34.980373 106.264442,33.254478 107.232498,31.412434 
z"/>
</svg>