<svg width="155" height="182" viewBox="0 0 155 182" fill="none" xmlns="http://www.w3.org/2000/svg">
<path d="M38.3092 73.0366C49.2232 55.9537 59.6928 38.9992 70.899 22.5465C81.2171 7.39754 95.871 -0.92729 114.362 2.13197C138.171 6.07099 152.956 24.0731 153.205 47.7422C153.284 55.3351 149.794 63.7541 145.728 70.4545C133.364 90.829 119.912 110.543 106.902 130.526C100.451 140.435 94.469 150.683 87.5162 160.224C76.1972 175.758 61.7382 182.261 43.1939 178.874C24.889 175.531 10.9205 159.142 7.76333 140.142C5.50464 126.549 10.6864 115.649 17.0108 104.99C23.4721 94.1002 31.0799 83.8909 38.3092 73.0366ZM112.064 19.0071C99.75 17.9337 90.4376 22.6869 83.8837 33.1918C78.9502 41.0995 73.7465 48.8386 68.6672 56.6554C67.1795 58.9449 65.706 61.2436 63.9086 64.0301C86.8738 63.1603 102.076 72.8753 110.21 94.2215C117.15 83.5592 123.784 73.4543 130.33 63.2929C142.352 44.6306 134.447 24.5973 112.064 19.0071Z" fill="#06D9B3"/>
<path d="M112.499 19.0551C134.447 24.5973 142.351 44.6306 130.33 63.2928C123.784 73.4543 117.15 83.5592 110.21 94.2215C102.075 72.8753 86.8733 63.1603 63.9082 64.0301C65.7055 61.2436 67.1791 58.9449 68.6668 56.6554C73.7461 48.8386 78.9498 41.0995 83.8833 33.1918C90.4372 22.6869 99.7496 17.9337 112.499 19.0551ZM117.336 33.8607C115.642 27.2854 111.079 23.9623 105.682 25.3726C100.705 26.673 97.9107 30.9667 98.5537 36.3262C99.1044 40.9165 103.287 44.7616 107.894 44.9133C111.854 45.0437 116.74 39.746 117.336 33.8607ZM97.6433 52.7176C92.7662 51.6897 89.515 53.355 88.9331 57.317C88.4384 60.6852 89.6931 63.7251 93.0106 64.2908C95.1763 64.6601 98.4708 63.7162 99.8713 62.1327C102.569 59.0824 101.634 55.6489 97.6433 52.7176Z" fill="#FAFEFD"/>
<path d="M117.372 34.2301C116.74 39.746 111.854 45.0437 107.894 44.9133C103.287 44.7616 99.1049 40.9165 98.5542 36.3263C97.9112 30.9668 100.705 26.673 105.682 25.3726C111.08 23.9623 115.643 27.2854 117.372 34.2301ZM106.894 31.4997C106.265 33.2545 105.402 34.9804 105.179 36.7853C105.126 37.2141 107.405 38.5672 108.273 38.3176C109.439 37.9818 111.28 36.0031 111.08 35.6031C110.278 33.9942 108.8 32.7219 106.894 31.4997Z" fill="#13D5AD"/>
<path d="M97.9942 52.9009C101.633 55.6489 102.568 59.0824 99.8704 62.1327C98.4699 63.7162 95.1754 64.6601 93.0096 64.2908C89.6921 63.7251 88.4375 60.6852 88.9322 57.317C89.5141 53.355 92.7653 51.6897 97.9942 52.9009Z" fill="#20D6AF"/>
<path d="M107.233 31.4124C108.8 32.7219 110.277 33.9942 111.08 35.603C111.279 36.0031 109.439 37.9818 108.272 38.3175C107.405 38.5672 105.126 37.214 105.179 36.7853C105.402 34.9804 106.264 33.2545 107.233 31.4124Z" fill="#E4FBF7"/>
</svg>
