<svg width="233" height="103" viewBox="0 0 233 103" fill="none" xmlns="http://www.w3.org/2000/svg">
<path d="M147.827 82.5081C158.253 82.5367 168.4 82.5396 178.547 82.601C189.145 82.6652 197.462 74.492 197.455 63.9579C197.448 53.411 189.155 45.3053 178.503 45.4275C172.867 45.4922 167.232 45.5503 161.596 45.6022C160.845 45.6092 160.084 45.6327 159.345 45.5273C157.174 45.2176 155.887 43.9007 155.95 41.7264C156.009 39.6801 157.334 38.3688 159.368 38.2526C162.272 38.0867 165.196 38.0505 168.1 38.195C170.022 38.2906 171.154 37.6454 172.19 36.0002C177.055 28.2749 181.844 20.4876 187.065 13.0066C192.904 4.6404 201.225 1.28505 211.181 3.3319C221.063 5.3638 227.112 11.7929 229.277 21.6508C230.581 27.5839 229.668 33.3417 226.365 38.4909C215.389 55.6036 204.495 72.7728 193.234 89.6957C184.686 102.543 166.352 103.277 156.178 91.6474C155.34 90.6893 153.76 90.0273 152.461 89.9057C149.666 89.6441 146.83 89.8588 144.011 89.8145C141.053 89.7679 139.339 88.3277 139.388 86.028C139.436 83.7686 140.974 82.5582 143.883 82.5126C145.105 82.4935 146.326 82.5086 147.827 82.5081ZM187.316 36.3348C197.293 37.8785 203.872 43.5675 207.368 53.3832C211.424 47.1205 215.294 41.2316 219.075 35.2857C224.04 27.4764 222.176 17.8562 214.849 13.1177C207.485 8.35592 198.028 10.5302 192.934 18.2281C189.402 23.5646 185.962 28.9629 182.495 34.3426C182.162 34.8602 181.926 35.4414 181.488 36.3013C183.485 36.3013 185.15 36.3013 187.316 36.3348Z" fill="#08D9B3"/>
<path d="M77.2977 65.2765C75.6295 67.995 74.2399 70.6962 72.3776 73.0153C70.6374 75.1825 68.7104 74.7962 67.6445 72.1768C65.5085 66.9278 65.172 61.3775 65.6486 55.8012C65.7225 54.9373 66.9319 53.5075 67.5983 53.5176C68.5379 53.532 70.0065 54.4652 70.2886 55.3232C71.13 57.8831 71.5033 60.5979 72.0913 63.4041C73.0965 61.1344 74.0022 58.7467 75.2061 56.5213C75.7775 55.4648 76.918 54.7181 77.8006 53.8311C78.6749 54.7584 79.8041 55.5527 80.3684 56.6416C81.4322 58.6945 82.1705 60.9171 83.2313 63.5303C83.6101 61.4012 83.7907 59.6938 84.2439 58.0626C84.5899 56.8171 85.0584 55.4656 85.8923 54.5432C86.5093 53.8608 87.901 53.3808 88.7602 53.589C89.3842 53.7402 90.2436 55.299 90.0702 55.999C88.6782 61.6195 87.3362 67.2816 85.4054 72.7263C84.4471 75.4287 82.3254 75.3373 80.9122 72.696C79.6037 70.2505 78.8169 67.5243 77.7916 64.9252C77.7791 64.8935 77.6383 64.8802 77.5798 64.9072C77.4988 64.9446 77.439 65.0284 77.2977 65.2765Z" fill="#0BDAB4"/>
<path d="M45.361 62.9334C42.7854 69.1237 38.5571 72.9766 32.0579 74.1252C29.8715 74.5115 28.3109 73.6613 28.3106 71.5188C28.3093 64.6853 28.5548 57.8507 28.8043 51.0202C28.8273 50.3921 29.4469 49.6607 29.9792 49.1959C35.1699 44.6635 43.8375 46.9566 45.5021 53.6032C46.2177 56.4604 45.5124 59.6757 45.361 62.9334ZM39.4334 61.7287C40.5012 59.3684 40.4747 57.1267 38.5332 55.2208C37.067 53.7815 34.5844 53.9393 34.3862 55.5449C33.937 59.1843 33.9075 62.8758 33.7073 66.546C34.1526 66.7168 34.5979 66.8876 35.0432 67.0584C36.4421 65.4127 37.8409 63.767 39.4334 61.7287Z" fill="#0ADAB4"/>
<path d="M177.693 52.7661C177.703 55.065 177.703 57.1032 177.703 59.7185C179.781 57.6583 181.355 55.8316 183.216 54.3725C184.09 53.6867 185.516 53.7083 186.692 53.4094C186.651 54.6341 186.69 55.8697 186.53 57.0785C186.462 57.5879 186.067 58.1524 185.659 58.5017C182.509 61.1994 182.746 63.9693 185.05 67.1519C185.996 68.4588 186.432 70.2535 186.696 71.8918C186.823 72.6847 186.214 73.8823 185.553 74.3989C185.215 74.6626 183.692 74.0553 183.278 73.4482C181.649 71.0569 180.247 68.5096 178.398 65.4143C177.809 66.6256 177.172 67.5915 176.861 68.6536C176.365 70.3491 176.346 72.2241 175.647 73.8113C174.81 75.7108 172.952 75.6037 172.118 73.6856C171.645 72.5974 171.38 71.3227 171.389 70.1349C171.432 64.5848 171.601 59.0357 171.737 53.4865C171.747 53.1143 171.848 52.7421 171.927 52.3743C172.389 50.2172 172.331 47.0974 175.183 47.239C177.904 47.3743 177.348 50.4624 177.693 52.7661Z" fill="#0BDAB4"/>
<path d="M168.303 55.9911C170.109 61.8858 169.109 67.3761 166.908 72.6801C166.489 73.6903 165.085 74.2894 164.135 75.0782C163.579 73.9794 162.646 72.9122 162.551 71.7746C162.389 69.8357 162.816 67.8548 162.882 65.8876C162.954 63.7176 162.898 61.5432 162.898 58.8867C160.182 60.1296 159.751 61.9399 159.638 63.9313C159.493 66.4576 159.639 69.0442 159.111 71.4856C158.864 72.6316 157.334 73.4987 156.385 74.4922C155.627 73.4189 154.281 72.3816 154.213 71.2663C153.918 66.3922 153.85 61.49 154.033 56.6106C154.08 55.3711 155.123 53.8325 156.173 53.1225C156.636 52.8091 158.259 54.2205 159.183 54.7503C161.016 54.2963 163.007 53.4393 164.989 53.4578C166.068 53.4678 167.132 54.9652 168.303 55.9911Z" fill="#0BDAB4"/>
<path d="M112.211 73.9496C107.54 70.6296 107.537 66.6815 112.135 63.7582C113.609 62.8217 115.427 62.4482 117 61.6453C117.664 61.3068 118.102 60.5239 118.642 59.943C117.897 59.3729 117.166 58.3661 116.401 58.3401C115.38 58.3053 114.36 59.2129 113.288 59.3809C112.131 59.5621 110.914 59.3567 109.724 59.32C109.978 58.1208 109.862 56.618 110.549 55.7734C114.069 51.4477 121.626 52.4426 123.149 57.7583C124.415 62.1741 124.462 66.9823 124.668 71.6336C124.719 72.7827 123.511 74.6157 122.474 74.9859C121.653 75.2791 120.208 73.8153 119.218 73.2358C117.069 73.4907 114.745 73.7664 112.211 73.9496ZM119.111 66.9306C118.718 66.4828 118.217 65.5941 117.952 65.66C116.431 66.0375 114.878 66.558 114.955 69.6312C116.631 68.7277 117.857 68.0671 119.111 66.9306Z" fill="#0ADAB4"/>
<path d="M59.1816 74.8796C58.5162 74.0986 58.0331 73.4261 57.5343 72.7319C56.1615 73.2101 54.7354 73.9143 53.2317 74.1856C50.4403 74.6891 48.5548 73.2775 47.419 70.7983C46.3152 68.3888 46.9408 66.1894 49.0065 64.8158C51.3784 63.2384 54.0559 62.1235 56.7696 60.7203C56.7121 58.5454 55.6541 57.6823 53.4055 58.4535C52.7921 58.6639 52.2537 59.2527 51.651 59.3023C50.409 59.4046 49.1469 59.2605 47.8931 59.2177C48.2497 57.9607 48.2376 56.3633 49.0256 55.5045C52.8517 51.3346 60.0697 52.6463 61.4985 58.0752C62.6702 62.527 62.7622 67.3091 62.9333 71.9595C63.0011 73.8029 62.0842 75.8003 59.1816 74.8796ZM53.256 67.4278C52.6699 69.4165 53.9859 69.2156 55.1018 68.9123C56.7166 68.4734 58.1492 67.7709 56.8002 65.2045C55.6669 65.8574 54.6011 66.4714 53.256 67.4278Z" fill="#0BDAB4"/>
<path d="M91.4009 70.1625C90.7377 67.5113 91.7251 65.6076 93.6994 64.3918C95.5083 63.2779 97.5887 62.6164 99.4962 61.6498C100.127 61.3299 100.593 60.6813 101.134 60.183C100.456 59.5341 99.7623 58.3368 99.1019 58.3549C97.8787 58.3885 96.7046 59.2798 95.4535 59.5347C94.456 59.7378 93.3744 59.5258 92.3302 59.4981C92.419 58.3682 92.1148 56.9756 92.6619 56.152C95.6634 51.6329 103.32 52.2999 105.511 57.2637C107.667 62.1494 107.678 67.3549 107.019 72.5306C106.898 73.4878 105.545 75.0787 104.909 75.0089C103.702 74.8765 102.603 73.7546 101.182 72.872C96.2326 75.3827 93.8466 74.8644 91.4009 70.1625ZM100.205 68.5886C100.762 67.6907 101.32 66.7928 101.877 65.8949C101.554 65.6194 101.23 65.3439 100.907 65.0684C99.5656 66.0165 98.224 66.9646 96.8824 67.9126C97.0233 68.2518 97.1642 68.5909 97.3051 68.93C98.1369 68.8767 98.9686 68.8234 100.205 68.5886Z" fill="#0ADAB3"/>
<path d="M143.185 71.1666C139.247 72.5373 135.502 73.9391 131.65 74.9111C129.92 75.3475 128.445 74.4706 128.038 72.2938C126.668 64.9597 126.786 57.6612 128.598 50.4474C128.897 49.2568 130.318 48.3497 131.221 47.3115C132.026 48.4623 133.39 49.5491 133.53 50.7764C133.901 54.0324 133.759 57.3489 133.793 60.6416C133.818 62.988 133.798 65.3349 133.798 67.9091C136.334 67.5444 138.773 66.9639 141.226 66.8997C144.203 66.8219 144.9 68.383 143.185 71.1666Z" fill="#0ADAB3"/>
<path d="M117.911 82.1538C121.756 82.1543 125.319 82.1139 128.881 82.1686C131.608 82.2104 133.334 83.7193 133.14 85.9398C132.919 88.4745 131.272 89.4298 128.884 89.4265C120.913 89.4155 112.943 89.4478 104.973 89.4072C102.337 89.3939 100.873 88.0259 100.865 85.8043C100.858 83.6172 102.346 82.2154 104.972 82.1735C109.19 82.1063 113.41 82.1544 117.911 82.1538Z" fill="#0BDAB4"/>
<path d="M151.331 66.3216C150.949 68.5977 150.727 70.6641 150.119 72.6091C149.912 73.2734 148.753 73.9738 147.993 74.0158C147.451 74.0458 146.481 73.0886 146.332 72.4286C145.049 66.7553 144.849 61.0414 146.602 55.4337C146.863 54.5993 148.123 53.7205 149.027 53.5874C149.534 53.5127 150.726 54.8788 150.805 55.6756C151.145 59.1225 151.188 62.5989 151.331 66.3216Z" fill="#0ADAB3"/>
<path d="M138.825 39.2905C142.3 39.102 145.575 38.9287 148.844 39.0013C150.937 39.0478 152.396 40.5583 152.061 42.464C151.827 43.7932 150.324 45.7065 149.147 45.9022C146.14 46.4024 142.973 46.3138 139.923 45.9775C138.839 45.858 137.205 44.4305 137.085 43.4448C136.93 42.1818 138.051 40.7621 138.825 39.2905Z" fill="#0DDAB4"/>
<path d="M87.4251 89.4257C85.6601 89.4161 84.1523 89.5256 82.6728 89.3679C80.6357 89.1508 79.473 87.9117 79.4233 85.8182C79.3758 83.8176 80.5293 82.4597 82.3697 82.3098C85.4317 82.0603 88.539 82.0532 91.604 82.2712C93.5929 82.4127 94.8148 83.8575 94.7304 85.9347C94.6465 87.9987 93.3555 89.1699 91.3374 89.3834C90.1351 89.5106 88.9098 89.419 87.4251 89.4257Z" fill="#0CDAB4"/>
<path d="M151.117 49.1342C150.94 49.5937 150.825 50.0063 150.646 50.0362C149.417 50.2418 148.174 50.3674 146.936 50.5187C147.082 49.7092 146.949 48.5179 147.43 48.1633C148.758 47.1833 150.309 46.7058 151.117 49.1342Z" fill="#0DDAB4"/>
<path d="M210.239 23.5421C209.356 26.3913 207.7 28.191 204.823 28.2208C202.316 28.2467 200.606 26.7956 199.772 24.4606C198.9 22.0197 199.698 19.9302 201.791 18.608C202.927 17.8902 204.666 17.1597 205.755 17.5358C208.299 18.414 210.693 19.8973 210.239 23.5421ZM203.004 22.4738C203.644 23.2381 204.201 24.1235 204.99 24.6743C205.169 24.7992 206.583 23.8208 206.66 23.2461C206.76 22.5058 206.086 21.6605 205.746 20.8604C204.857 21.2564 203.967 21.6523 203.004 22.4738Z" fill="#15D5AC"/>
<path d="M205.064 37.2011C205.624 33.6915 207.958 32.0123 210.139 33.597C211.149 34.3301 212.079 36.1505 211.891 37.2852C211.708 38.3878 210.196 39.7382 209.004 40.0968C207.02 40.6932 205.633 39.4416 205.064 37.2011Z" fill="#1DD8B1"/>
</svg>
